
<svg width="82px" height="94px" viewBox="165 0 82 94" version="1.1" xmlns="http://www.w3.org/2000/svg" xmlns:xlink="http://www.w3.org/1999/xlink">
    <!-- Generator: Sketch 3.8.3 (29802) - http://www.bohemiancoding.com/sketch -->
    <desc>Created with Sketch.</desc>
    <defs></defs>
    <g id="color-palettes" stroke="none" stroke-width="1" fill="none" fill-rule="evenodd" transform="translate(165.000000, 0.000000)">
        <g id="Group" fill="#000000">
            <path d="M44.4,1.8 C42.3,0.6 39.4,0.6 37.3,1.8 L3.6,21.3 C1.4,22.6 0.1,24.9 0.1,27.5 L0.1,66.5 C0.1,69 1.5,71.4 3.6,72.7 L12.5,77.8 L37.3,92.1 C38.4,92.7 39.6,93 40.8,93 C42,93 43.3,92.7 44.4,92.1 L78.2,72.6 C80.4,71.3 81.7,69 81.7,66.4 L81.7,27.5 C81.7,24.9 80.4,22.5 78.2,21.3 L44.4,1.8 Z M41.3,86.7 C41,86.9 40.6,86.9 40.3,86.7 L6.7,67.4 C6.4,67.2 6.2,66.9 6.2,66.5 L6.2,27.6 C6.2,27.2 6.4,26.9 6.7,26.7 L40.4,7.2 C40.7,7 41.1,7 41.4,7.2 L75.1,26.7 C75.3,26.9 75.5,27.2 75.5,27.5 L75.5,34.6 L75.5,66.5 C75.6,66.7 75.4,67.1 75.1,67.3 L41.3,86.7 Z" id="border"></path>
        </g>
        <path d="M55.7191904,40.3952414 L55.4067979,40.0828489 L60.0847094,35.4053805 C60.0847094,35.4053805 64.7621778,30.7283553 62.2674689,28.2336464 L61.0210007,26.986735 L61.0201145,26.9862919 L59.7736463,25.7393806 C57.2784943,23.2451148 52.6010259,27.9225832 52.6010259,27.9225832 L47.9240006,32.6000516 C47.063038,31.739089 45.6667986,31.739089 44.805836,32.6000516 L41.9996208,35.4062668 C41.1391013,36.2672294 41.1391013,37.6639118 41.9996208,38.5244313 L42.6230765,39.147887 L23.6145468,58.1559736 L23.5454216,58.5738262 C22.9902049,61.9046836 19.8179809,65.6946028 19.7874063,65.731824 L19,66.6610255 L19.8609626,67.521545 L20.7963676,68.4569501 L21.6577733,69.3183558 L22.5865318,68.5318357 C22.6246392,68.4994886 26.4003789,65.3303664 29.7449726,64.7733773 L30.1623822,64.703809 L49.171355,45.6952793 L49.7952538,46.3191781 C50.6553302,47.1796976 52.0524558,47.1796976 52.9129752,46.3191781 L55.7191904,43.5129629 C56.5805961,42.6520003 56.580153,41.2557609 55.7191904,40.3952414 L55.7191904,40.3952414 Z M28.8791358,62.2458782 C27.1474622,62.6167612 25.4157886,63.466203 24.0084715,64.3107705 C24.8525959,62.9025671 25.7020377,61.1717798 26.0729207,59.4392199 L44.4938866,41.018254 L47.3001018,43.8244692 L28.8791358,62.2458782 L28.8791358,62.2458782 Z" id="Shape" fill="#000000"></path>
    </g>
</svg>